<?xml version="1.0" encoding="UTF-8"?>
<svg id="_图层_1" data-name="图层 1" xmlns="http://www.w3.org/2000/svg" version="1.1" viewBox="0 0 841.89 595.28">
  <defs>
    <style>
      .cls-1 {
        stroke-width: 1.42px;
      }

      .cls-1, .cls-2, .cls-3, .cls-4 {
        fill: none;
        stroke-miterlimit: 10;
      }

      .cls-1, .cls-2, .cls-4 {
        stroke: #040000;
      }

      .cls-5 {
        fill: #040000;
        stroke-width: 0px;
      }

      .cls-2 {
        stroke-width: 1.41px;
      }

      .cls-3 {
        stroke: #060001;
      }

      .cls-4 {
        stroke-width: 1.41px;
      }
    </style>
  </defs>
  <g>
    <path class="leaf" d="M406.03,37.03s-12.66,23.67-1.64,54.28c0,0,7.56-13.78,1.64-54.28Z"/>
    <path class="leaf"  d="M405.72,39.32s-3.25,25.67-1.8,51.9"/>
    <path class="leaf"   d="M437.1,48.29s-25.97,11.84-32.83,43.64c0,0,16.41-6.15,32.83-43.64Z"/>
    <path class="leaf"   d="M435.62,50.07s-18.69,18.83-31.35,41.85"/>
    <path class="leaf"   d="M404.27,91.92s22.81-16.74,50.49-23.33c0,0-22.15,16.74-50.49,23.33Z"/>
    <path class="leaf"   d="M404.27,91.92s4.46,14.41,26.45,19.34c0,0-7.75-12.69-24.21-19.95"/>
    <path class="leaf"   d="M403.61,91.38s-21.88-4.99-28.6-37.69c0,0,18.07,14.09,28.6,37.69Z"/>
    <path class="leaf"   d="M394.52,81.64s-15.16-15.03-19.38-27.95"/>
    <path class="leaf"   d="M403.92,92.4s-17.71-1.79-29.57,5.46c0,0,16.92-.32,29.57-5.46Z"/>
    <path class="Petiole"   d="M401.27,93.66s5.8,20.43,1.57,38.32"/>
    <path class="Petiole"   d="M408.28,98.26s1.21,15.47-4.23,34.45"/>
  </g>
  <g>
    <path class="leaf"  d="M380.43,118.91s7.93-17.06,41.06-24.33c0,0-24.55,19.93-41.06,24.33Z"/>
    <path class="leaf"   d="M420.17,94.91s-29.06,13.87-40.51,24.55"/>
    <path class="leaf"   d="M379.33,119.24c-17.94-14.75-18.83-41.17-18.83-41.17,0,0,17.17,13.98,19.38,40.73l-.55.44Z"/>
    <path class="leaf"   d="M360.5,78.06s12.99,31.05,18.66,41.56"/>
    <path class="leaf"   d="M372.28,113.18s-28.84-22.68-51.85-19.16c0,0,14.64,18.17,51.85,19.16Z"/>
    <path class="leaf"   d="M320.43,94.03s36.88,13.32,51.3,18.83"/>
    <path class="leaf"   d="M373.95,114.12s-37.33-3.91-55.5,23.61c0,0,17.61-2.64,31.16-10.46,13.54-7.82,24.99-9.14,28.84-8.7"/>
    <path class="leaf"   d="M318.45,137.73s33.76-21.44,56.94-18.99"/>
    <path class="leaf"   d="M376.91,118.8s-32.7,12.33-33.8,46.24c0,0,27.63-24.22,35.01-45.36l-1.21-.88Z"/>
    <path class="leaf"   d="M343.11,165.03s14.2-30.61,34.35-43.05"/>
    <path class="leaf"   d="M380.43,118.91s30.72,11.34,34.13,32.37c0,0-17.17-4.62-34.13-32.37Z"/>
    <path class="leaf"   d="M381.2,120.01s21.47,15.96,29.28,29.39"/>
    <path class="leaf"   d="M379.44,118.47s-7.82,37.43,3.08,57.47c0,0,8.92-26.2-1.87-56.92"/>
    <path class="leaf"  d="M382.19,174.28s-.88-48.22-1.98-55.6"/>
    <path class="leaf"  d="M383.25,127.94s14.36,20.15,19.92,38.72c0,0-1.17-19.6-8.48-28.96"/>
    <path class="Petiole"  d="M384.43,132.16s8.99,23.12,10.87,39.51"/>
    <path class="Petiole"  d="M384.31,129.96s12.62,19.18,14.5,40.46"/>
  </g>
  <g>
    <path class="leaf"  d="M448.69,112.52s24.11-15.3,43.93-6.28c0,0-37.54,3.3-44.04,7.49"/>
    <path class="leaf"  d="M448.36,114.72s-.22-17.39-17.72-25.43c0,0,9.91,16.18,17.39,25.76"/>
    <path class="leaf"  d="M448.25,114.06s23.45-1.87,34.35,8.26c0,0-26.86-3.3-34.35-8.26Z"/>
    <path class="leaf"  d="M446.51,113.38s-8.38-7.09-25.12-9.78c0,0,14.42,10.9,27.19,11.23"/>
    <path class="leaf"  d="M448.01,113.92c-3.55,8.17-1.18,29.44,2.9,39.44,0,0,4.19-24.61-2.15-39.44"/>
    <path class="leaf"  d="M442.32,113.92s-24.93,4.08-36.75,20.42c0,0,23.75-7.41,40.72-19.45"/>
    <path class="leaf"  d="M441.52,117.8c-.55.41-12.41,13.51-12.41,38.48,0,0,15.72-24.27,16.41-40.54"/>
    <path class="leaf"  d="M444.97,136.42s-12-6.62-25.1,2.9c0,0,11.31,1.64,23.72-.57"/>
    <path class="Petiole"  d="M446.4,131.33s-9.79,23.14-13.05,27.74"/>
    <path class="Petiole"  d="M447.14,137.11s-7.71,17.95-10.98,22.54"/>
  </g>
  <g>
    <path class="leaf"  d="M491.14,158.67s-2.84-22.26,16.47-32.71c0,0-.91,17.49-15.57,32.15"/>
    <path class="leaf" d="M486.49,159.47s-22.49-7.72-25.9-26.46c0,0,24.42,8.63,27.6,27.03l-1.7-.57Z"/>
    <path class="leaf"  d="M490.92,154.58s7.27-8.18,8.97-15.33"/>
    <path class="leaf"  d="M487.53,159.74s-5.36-6.18-6.83-7.54"/>
    <path class="leaf"  d="M489.21,159.81s9.65-8.4,41.34-6.59c0,0-9.9,10.52-36.7,7.68"/>
    <path class="leaf"  d="M523.85,194.79s-27.93-23.93-35.31-34.83c0,0,32.13,2.46,35.31,34.83Z"/>
    <path class="leaf"  d="M529.53,153.22s-9.09,1.93-13.18,3.18"/>
    <path class="leaf"  d="M489.64,160.76s16.12,5.64,23.73,24.69"/>
    <path class="leaf"  d="M489.56,160.54c-1.59,13.93,2.09,43.55,4.34,52.48,0,0,9.93-15.6,2.5-44.05"/>
    <path class="leaf"  d="M491.89,164.21s4.67,18.02,2.34,47.97"/>
    <path class="leaf"  d="M489.14,160.79c-1.25,7.34-19.61,31.37-23.7,43.72"/>
    <path class="leaf"  d="M486.49,159.47s-21.32-3.87-45.75,21.59c0,0,22.99-3.71,42.78-15.36"/>
    <path class="leaf"  d="M440.74,181.06s19.55-10.15,28.14-12.37"/>
    <path class="leaf"  d="M474.55,165.6s5.54-3.25,13.59-4.97c0,0-25.7,24.95-22.36,47.14,0,0,19.52-23.03,23.44-40.13"/>
    <path class="Petiole"  d="M421.44,214.7s23.75-28.83,45.29-40.99"/>
    <path class="Petiole"  d="M424.42,216.91s30.71-35.02,56.67-49.71"/>
    <path class="Petiole"  d="M486.4,176.47s-1.91,20.22-33.36,50.71"/>
    <path class="leaf"  d="M488.48,172.75s-.59,26.01-33.85,58.24"/>
  </g>
  <g>
    <path class="leaf"  d="M293.97,184.08c-2.32-16.99-19.02-20.92-19.02-20.92,0,0,4.03,15.99,18.81,21.02"/>
    <line class="leaf"  x1="280.05" y1="168.98" x2="293.65" y2="183.86"/>
    <path class="leaf"  d="M293.33,185.79s5.25-12.74,35.55-11.46c0,0-7.92,7.71-35.12,11.89"/>
    <path class="leaf"  d="M293.33,184.61s-21.74-5.78-45.94,14.46c0,0,23.56-.96,43.69-14.67"/>
    <path class="leaf"  d="M261.74,194.14s12.42-9.32,23.88-10.39"/>
    <path class="leaf"  d="M293.18,185.74s-34.12,11.83-40.01,43.96c0,0,17.13-13.49,27.52-22.17,10.39-8.67,13.09-14.54,13.09-14.54"/>
    <path class="leaf"  d="M254.46,224.45s7.92-14.35,22.06-24.09c14.13-9.74,17.13-14.88,17.13-14.88"/>
    <path class="leaf"  d="M303.37,184.43s22.51,6.18,28.08,25.45c0,0-26.23-13.28-37.8-23.45"/>
    <path class="leaf"  d="M298.63,185.47c3.38.54,10.98,6,16.01,11.03"/>
    <path class="leaf"  d="M298.79,190.93s1.21,34.2-2.86,47.9c0,0,10.36-29.17,7.15-45.23"/>
    <path class="leaf"  d="M293.86,187.18s-.17,16.3.26,31.48c.22,7.86.33,12.46,1.8,19.68"/>
    <path class="Petiole"  d="M305.22,184.98s41.21,6.98,62.03,30.43"/>
    <path class="Petiole" d="M317.97,191.68s27.81,6.32,46.34,24.53"/>
  </g>
  <g>
    <path class="leaf"  d="M328.65,161.9c-2.98-4.17-17.05-16.45-23.96-20.15,0,0,6.32,15.02,24.08,21.22"/>
    <path class="leaf"  d="M328.65,162.14s-.83-16.81,16.33-27.3c0,0-7.63,21.82-16.45,27.18"/>
    <path class="leaf"  d="M327.81,163.11s-22.53-6.82-36.36,4.03c0,0,22.16,3.52,36.71-3.75"/>
    <path class="leaf"  d="M328.89,162.98s-1.43,12.64,6.56,23.61c0,0,1.67-13.95-6.56-23.61Z"/>
    <path class="leaf"  d="M328.37,163.54s-6.76,6.12-9.72,10.91"/>
    <line class="Petiole"  x1="330.84" y1="160.23" x2="343.3" y2="160.51"/>
    <line class="Petiole"  x1="328.94" y1="164.17" x2="343.3" y2="164.45"/>
  </g>
  <g>
    <path class="leaf"  d="M301.11,244.85s6.8-25.24,20.58-31.48c0,0-10.07,22.12-20.58,31.48Z"/>
    <path class="leaf"  d="M300.36,245.34c-3.66-6.51-17.67-20.78-24.43-25.2,0,0-.13,16.38,23.66,25.87"/>
    <path class="leaf"  d="M298.19,245.54s-29.54-5.12-36.3,8.27c0,0,28.86-.39,36.53-8.45"/>
    <path class="leaf"  d="M297.51,246.27s-22.1,15.73-26.13,35.62c0,0,18.76-13.82,28.51-36.96"/>
    <path class="leaf"  d="M298.91,247.28s-8.9,24.27-3.24,49.58c0,0,9.47-33.97,4.62-51.66"/>
    <path class="Petiole"  d="M301.11,244.85s15.25-.88,25.68,1.21"/>
    <path class="Petiole"  d="M301.35,248.02s12.26-.52,23.35-.52"/>
  </g>
  <g>
    <path class="leaf"  d="M307,270.94s7.49,9.91-.22,28.29c0,0-4.51-13.1.22-28.29Z"/>
    <path class="leaf"  d="M265.22,298.71s22.09-6.89,40.46.85c0,0-20.15,5.5-40.46-.85Z"/>
    <path class="leaf"  d="M303.92,302.98s-25.43-3.85-39.52,19.38c0,0,35.34-16.07,39.19-19.05"/>
    <path class="leaf"  d="M306.78,299.24s-3.63,3.41-9.69,16.29c-6.06,12.88-2.09,18.28-2.09,18.28,0,0,10.15-19.3,11.12-25.32,1.1-6.83.66-9.25.66-9.25Z"/>
    <path class="leaf"  d="M307.11,297.91s11.67-2.86,24,5.94c0,0-16.51,2.86-24-5.94Z"/>
    <path class="Petiole"  d="M308.76,292.85s10.78-1.28,17.94-1.17"/>
    <path class="Petiole"  d="M307.77,297.58s15.93-2.78,26.83-3.44"/>
  </g>
  <g>
    <path class="leaf"  d="M346.78,260.58s24.03,13,23.86,39c0,0-22.05-19.25-23.86-39Z"/>
    <path class="leaf"  d="M361.26,283.45s-10.86-18.27-14.48-22.88"/>
    <path class="leaf"  d="M378.71,268.97s-8.72,12.01-6.58,32.26c0,0,8.39-15.47,6.58-32.26Z"/>
    <path class="leaf"  d="M368.01,297.44c-25.18,2.3-47.4-8.39-47.4-8.39,23.2-1.81,45.09,5.92,45.09,5.92"/>
    <path class="leaf"  d="M366.03,297.77s-32.91,11.36-49.04,26.33c0,0,17.63-9.17,26.5-11.52,11.19-2.96,18.93-9.55,25.67-14.32"/>
    <path class="leaf"  d="M314.52,325.25s12.67-20.08,39.66-22.88"/>
    <path class="leaf"  d="M368.01,299.25s-27.32,24.52-31.27,49.86c0,0,25.84-21.23,33.08-50.85"/>
    <path class="leaf"  d="M369,298.59s-26.33,34.07-28.64,47.23"/>
    <path class="leaf"  d="M367.84,305.34s-4.11,21.39,10.86,35.22c0,0-7.41-21.72-6.09-40.32"/>
    <path class="leaf"  d="M375.58,328.54c.12-.55-7.21-9.58-5.92-29.62"/>
    <path class="leaf" d="M374.1,297.27s14.65-3.79,35.71,2.3c0,0-17.61,5.76-36.53-.49"/>
    <path class="leaf"  d="M374.59,299.58s22.88,23.7,21.56,49.86c0,0-11.68-12.01-23.53-48.05"/>
    <path class="leaf"  d="M391.21,339.9s-9.87-27.15-17.94-40.81"/>
    <path class="Petiole"  d="M390,321.97s16.85,9.17,22.07,13.41"/>
    <path class="Petiole"  d="M391.86,326.72s12.56,6.79,18.85,10.87"/>
  </g>
  <g>
    <path class="leaf"  d="M326.03,335.11s-18.97-5.88-42.26,6c0,0,21.73,2.52,42.5-5.76"/>
    <path class="leaf"  d="M315.59,338.84s-18.97,6.84-29.17,26.05c0,0,4.68,1.32,12.73-6.48,8.04-7.8,14.89-15.97,24.85-22.09"/>
    <path class="leaf"  d="M325.55,335.6s-19.09,23.89-14.89,41.9c0,0,9.48-16.21,12.73-24.01,3.24-7.8,4.32-18.61,4.32-18.61"/>
    <path class="leaf"  d="M334.92,332.95s-7.2,9.96-8.04,19.69c-.84,9.72,1.2,20.77,1.2,20.77,0,0,5.64-11.65,6.72-21.61s.12-18.85.12-18.85Z"/>
    <path class="leaf"  d="M334.8,332.47s-3.84,10.08-3.6,26.17"/>
    <path class="Petiole"  d="M325.19,336.08s9.48-5.76,18.37-5.04"/>
  </g>
  <g>
    <path class="leaf"  d="M369.54,401.34c-21.65-10.6-19.14-28.13-19.14-28.13,0,0,17.3,12.47,18.91,28.01"/>
    <path class="leaf"  d="M352.26,374.39s4.26,15.09,16.47,23.15"/>
    <path class="leaf"  d="M368.85,400.53s-14.97-.92-25.8.35c-10.83,1.27-17.27,1.15-17.27,1.15,0,0,18.77,10.48,42.84,1.61"/>
    <path class="leaf"  d="M328.08,402.61s17.51,1.96,32.13,1.04"/>
    <path class="leaf"  d="M367.46,405.14s-36.62,13.59-39.5,28.79c0,0,31.32-8.06,38.23-23.72"/>
    <path class="leaf"  d="M329.23,433.47s12.67-3.45,31.56-20.73"/>
    <path class="leaf"  d="M369.77,401.34s-16.24,35.59-9.21,52.05c0,0,14.97-34.9,9.21-52.4"/>
    <path class="leaf"  d="M359.63,451.44s2.88-17.85,7.14-28.68"/>
    <path class="leaf"  d="M369.88,400.65s11.4-12.44,29.37-15.32c0,0-6.22,7.6-11.52,10.02-5.3,2.42-17.85,5.3-17.85,5.3Z"/>
    <path class="leaf"  d="M371.49,399.84s9.56-6.1,16.47-8.75"/>
    <path class="leaf"  d="M370.8,400.19c5.76.69,28.22,8.29,33.28,31.09,0,0-23.95-17.97-33.63-29.02"/>
    <path class="leaf"  d="M399.13,424.49s-12.09-16.12-28.91-23.38"/>
    <path class="leaf"  d="M371.15,409.05s4.84,27.87,10.02,37.54c0,0,4.26-21.19-6.45-39.96"/>
    <path class="Petiole"  d="M368.85,397.42s18.69-20.89,50.47-28.72"/>
    <path class="Petiole"  d="M374.37,396.73s13.16-17.47,44.95-25.3"/>
  </g>
  <g>
    <path class="leaf"  d="M377.25,354.62s-9.9-2.31-19.43,4.22c-9.53,6.53-15.53,13.17-15.53,13.17,0,0,22.91-8.89,35.33-17.03"/>
    <path class="leaf"  d="M374.73,357.02s-2.78,16.6,5.78,23.13c0,0-.21-17.13-3.43-24.63"/>
    <path class="leaf"  d="M397.38,356.92s-11.03-7.72-21.6-6.53c0,0-1.84,7.54,19.03,14.34"/>
    <path class="leaf"  d="M375.77,350.39c.18.09,4.69,4.23,8.73,5.24"/>
    <path class="Petiole"  d="M401.42,362.71s10.02,2.85,17.47,3.22"/>
    <path class="Petiole"  d="M397.66,366.02s14.14,1.65,21.58,2.02"/>
  </g>
  <g>
    <path class="leaf"  d="M422.85,327.96s-29.97,15.54-28.04,41.83c.28-.18,24.36-29.51,33.28-41"/>
    <path class="leaf"  d="M425.97,328.51s-21.51,17.56-26.02,31.53"/>
    <path class="leaf"  d="M429.74,329.52s28.32,11.58,26.66,42.11c0,0-9.84-11.86-15.26-22.16-6.29-11.94-11.4-19.95-11.4-19.95Z"/>
    <path class="leaf"  d="M444.08,346.07s8.92,10.94,12.23,24.64"/>
    <path class="leaf"  d="M428.45,328.33c-4.5,9.65-7.91,30.34-2.67,46.98,0,0,17.28-22.06,3.22-46.15"/>
    <path class="leaf"  d="M428.91,347.27s-1.38,12.96-4.78,21.79"/>
    <path class="leaf"  d="M428.73,328.42s7.26-17.56,22.8-26.02c0,0,1.1,11.31-21.79,27.12"/>
    <path class="leaf"  d="M451.53,302.4s-3.31,7.63-12.32,15.54"/>
    <path class="leaf"  d="M435.26,325.48s14.89-4.23,37.97,5.52c0,0-14.16,4.23-26.75,1.47-12.6-2.76-14.99-4.14-14.99-4.14"/>
    <path class="leaf"  d="M442.15,327.32c.37.18,5.61,3.13,29.14,3.31"/>
    <path class="leaf"  d="M427.81,329.06c-25.19-4.23-26.66-19.03-26.75-19.49,0,0,10.94,7.81,18.2,12.87,7.26,5.06,8.46,6.71,8.46,6.71"/>
    <path class="leaf"  d="M401.06,309.57s6.07,9.38,13.05,12.69"/>
  </g>
  <g>
    <path class="leaf"  d="M478.06,319.42s21.39,4.5,19.2,29.84c0,0-4.04-6.92-8.56-12.83-4.84-6.33-10.19-11.84-10.64-17Z"/>
    <path class="leaf"  d="M486.28,327.65s7.68,7.79,10.86,20.84"/>
    <path class="leaf"  d="M497.58,347.5s6.14-12.18,33.89-18.32c0,0-23.04,16.02-33.89,18.32Z"/>
    <path class="leaf"  d="M508.44,343.44s19.2-5.59,33.35-3.07c0,0-32.36,20.73-44.86,10.97"/>
    <path class="leaf"  d="M521.82,345.31s-13.38,8.01-24.13,5.92"/>
    <path class="leaf"  d="M473.23,330.99s7.79,5.87,13.71,10.48c4.62,3.59,7.68,3.84,7.68,3.84"/>
    <path class="leaf"  d="M469.94,331.93s10.75,17.55,27.31,17.33"/>
    <path class="leaf"  d="M492.32,349.04s-21.28,11.85-28.63,26.44c0,0,25.56-15.47,33.46-25.23"/>
    <path class="leaf"  d="M495.72,351.67s-.88,26,14.04,37.62c0,0-2.85-28.08-9.65-36.31"/>
    <path class="leaf"  d="M508.77,381.07s-11.41-14.15-12.4-29.95"/>
    <path class="Petiole"  d="M490.01,348.6c-15.14,1.54-36.64,3.18-36.64,3.18l.77,2.19s29.73-2.41,37.73-4.5l-1.86-.88Z"/>
  </g>
  <g>
    <path class="leaf"  d="M543.73,236.51s-23.62,21.22-27.3,35.56c0,0,27.82-20.26,27.3-35.56Z"/>
    <path class="leaf"  d="M517.09,269.92c-10.89-8.41-29.86-32.23-29.86-32.23,0,0-6.79,18.97,29.32,32.56"/>
    <path class="leaf"  d="M519.36,270.46s30.83.65,35.68,18.76c0,0-3.67-2.37-13.69-3.88-8.42-1.27-21.99-14.88-21.99-14.88Z"/>
    <path class="leaf"  d="M520.54,270.89s11.64,4.1,18.54,8.62"/>
    <path class="leaf"  d="M515.69,270.46s-39.78-1.62-51.64,17.57c0,0,34.39-1.83,52.72-18.11"/>
    <path class="leaf"  d="M464.05,288.04s25.12-8.73,28.78-9.49"/>
    <path class="leaf"  d="M512.13,273.81s-34.24,26.84-29.54,43.66c0,0,29.26-28.68,33.32-46.68"/>
    <path class="leaf"  d="M482.92,315.96c2.8-6.9,29.32-39.46,32.45-43.99"/>
    <path class="leaf"  d="M513,279.09s-10.67,31.48-3.99,52.07c0,0,10.57-48.94,9.81-60.7"/>
    <path class="leaf"  d="M517.09,271.86s-8.62,39.57-9.27,52.61"/>
    <path class="leaf"  d="M518.82,274.56s6.9,42.26,13.37,54.34c0,0,2-22.02-.54-34.07-3.02-14.34-9.59-22.42-9.59-22.42"/>
    <path class="leaf"  d="M519.57,271.65s5.71,15.09,7.76,28.57"/>
    <path class="Petiole"  d="M440.39,320.95s34.89-14.26,58.31-40.36"/>
    <path class="Petiole"  d="M442.68,324.51s30.81-14.39,58.31-41"/>
    <path class="leaf"  d="M485.52,251.06s-1.79,14.43,13.6,20.13c0,0-4.19-16.08-13.6-20.13Z"/>
  </g>
  <g>
    <path class="leaf"  d="M516.71,228.85c-.2-5.19-2-20.58-6.27-27.94,0,0-4.04,17.48,4.76,28.7"/>
    <path class="leaf"  d="M525.67,210.88s-9.97,5.11-7.62,16.98c0,0,6.46-6.63,7.62-16.98Z"/>
    <path class="leaf"  d="M519.62,226c4.71-2.17,18.65-8.06,28.79-5.38,0,0-19.54,6.14-27.62,5.61"/>
    <path class="leaf"  d="M514.35,228.91s-4.7-1.12-8.74-3.25c-4.03-2.13-6.27-8.29-14.9-8.85,0,0,.7,6.76,14.81,8.78"/>
    <path class="leaf"  d="M515.31,229.43s-20.67.6-29.85,5.97c0,0,12.33-1.09,23.98-2.66"/>
    <path class="leaf"  d="M520.96,226.22c3.36,9.52.11,27.33.11,27.33,0,0-6.33-15.57-2.97-26.21"/>
    <path class="leaf"  d="M517.58,228.73c-6.22,2.15-17.34,9.58-21.59,16.53,0,0,15.76-7.38,21.48-14.55"/>
  </g>
  <g>
    <line class="Petiole"  x1="446.13" y1="231.31" x2="429.09" y2="242.71"/>
    <path class="Petiole"  d="M445.03,236.39c-10.31,1.92-15.94,6.32-15.94,6.32"/>
    <path class="leaf"  d="M472.67,237.63s13.51,5.39,8.95,18.26c0,0-7.58-11.78-8.95-18.26Z"/>
    <path class="leaf"  d="M436.71,213.16s19.35,2.28,19.72,29.76c0,0-6.21-6.57-11.68-16.43-5.48-9.86-8.03-13.33-8.03-13.33Z"/>
    <path class="leaf"  d="M457.25,243.2s9.68-15.06,27.48-16.25c0,0-12.96,15.97-27.48,16.25Z"/>
    <path class="leaf"  d="M460.26,242.83s19.72,6.39,19.9,24.01c0,0-17.71-14.15-23-23.46"/>
    <path class="leaf"  d="M453.87,240.46s-28.21,1.83-40.9,23.73c0,0,33.59-16.34,41.81-22.73"/>
    <path class="leaf"  d="M413.34,263.55s17.25-13.15,27.66-17.34"/>
    <path class="leaf"  d="M442.64,248.85s-18.99,12.41-20.45,26.84c0,0,25.56-17.25,31.86-33.78"/>
    <path class="leaf"  d="M445.2,251.32s-15.34,12.6-19.17,19.99"/>
    <path class="leaf"  d="M448.76,251.5s-3.83,6.3-3.38,16.16c0,0,12.51-10.95,12.69-22.91"/>
    <path class="leaf"  d="M455.6,241.64s.46,7.12-6.94,18.71"/>
    <path class="leaf"  d="M457.34,249.13s4.2,15.97,2.83,30.85c0,0,7.58-11.59,1.83-30.31"/>
  </g>
  <g>
    <path class="leaf"  d="M352.03,242.42s-8.7-3.15-20.03,1.26c-11.32,4.4-16.99,11.22-16.99,11.22,0,0,13.32-2.41,20.76-5.35,7.45-2.94,16.25-7.13,16.25-7.13Z"/>
    <path class="leaf"  d="M352.03,242.42s-16.88,12.06-24.33,19.82c-7.45,7.76-11.32,14.05-10.17,14.79.71.45,32.09-25.38,35.65-32.3"/>
    <path class="leaf"  d="M353.08,239.48s-1.47,9.44,6.92,19.82c0,0-.31-21.29-6.92-19.82Z"/>
    <path class="leaf"  d="M353.08,239.48c-2.83-7.65-18.46-13.53-18.46-13.53,1.78,6.92,13,15.48,13,15.48"/>
    <path class="leaf"  d="M356.75,227.63s-3.15,5.87-2.62,11.85"/>
    <path class="leaf"  d="M364.61,226.69s-3.88,7.24-9.54,12.9"/>
    <path class="Petiole"  d="M356.64,238.12s9.96,0,14.79,6.5"/>
    <path class="leaf"  d="M359.26,238.12s3.77,4.61,9.96,10.38"/>
    <path class="leaf"  d="M355.59,239.27c7.03-.21,3.86,4.54,6.71,8.7,1.2,1.74,3.31,2.6,5.14,4.3"/>
    <path class="Petiole"  d="M380.24,246.21c4.23,1.25,17.24,8.39,17.24,8.39l-20.22-5.56"/>
  </g>
  <g>
    <path class="leaf"  d="M394.94,211.64s-25.71,24.73-27.39,44.63c0,0,10.5-5.08,17.24-18.13,3.48-6.74,6.22-18.75,10.15-26.5Z"/>
    <path class="leaf"  d="M367.55,256.27s10.84-15.66,13.2-19.01"/>
    <path class="leaf"  d="M394.94,212.04s-32.91-.79-53.99,15.66c0,0,32.91.89,51.43-13.1"/>
    <path class="leaf"  d="M340.95,227.7s45.61-13.2,52.31-13.89"/>
    <path class="leaf"  d="M361.35,183.07s19.7-.59,32.71,28.57c0,0-23.45-5.52-32.71-28.57Z"/>
    <path class="leaf"  d="M361.35,183.07s25.22,17.93,32.71,28.57"/>
    <path class="leaf"  d="M396.22,210.66s20.29-16.35,38.82-16.26c0,0-21.87,20.49-38.82,16.26Z"/>
    <path class="leaf"  d="M396.52,210.36s8.97-2.36,17.14-6.7"/>
    <path class="leaf"  d="M402.53,177.56s-10.15,13.6-7.49,33.3c0,0,10.34-12.91,7.49-33.3Z"/>
    <line class="leaf"  x1="399.97" y1="189.48" x2="395.14" y2="211.55"/>
    <path class="leaf"  d="M403.02,211.15s29.16,1.28,38.32,20.59c0,0-29.06-18.82-45.42-20.69"/>
    <path class="leaf"  d="M405.09,213.42s26.7,11.82,24.43,34.58c0,0-19.75-18.45-24.93-25.71-6.7-9.39-10.56-12.39-8.97-11.13"/>
    <path class="leaf"  d="M429.03,246.72s-10.64-24.04-31.92-35.17"/>
    <path class="leaf"  d="M395.04,210.86s-6.21,31.43,6.11,50.44c0,0,1.67-34.28-.89-44.43"/>
    <path class="leaf"  d="M396.22,210.66s.99,21.38,1.77,27.19"/>
    <path class="leaf"  d="M398.09,244.25s.49,10.64,2.76,15.86"/>
  </g>
  <g>
    <path class="leaf"  d="M405.54,167.18s9.97-9.16,36.64-5.91c0,0-24.35,10.44-36.64,5.91Z"/>
    <path class="leaf"  d="M412.96,168.34s7.65,4.41,12.87,18.67c0,0-7.19-2.32-18.32-19.36"/>
    <path class="leaf"  d="M405.54,167.18s-12.87.81-21.1,13.22c0,0,14.73-4.41,21.1-13.22Z"/>
    <path class="leaf" d="M407.16,165.56c-.81-9.39,2.09-16.23,2.09-16.23,0,0,3.25,8.23,1.62,14.49"/>
  </g>
  <g>
    <path class="leaf"  d="M422.96,287.49s7.64-17.4,29.22-19.78c0,0-7.34,7.38-14.31,12.53-8.21,6.06-14.91,7.26-14.91,7.26Z"/>
    <path class="leaf"  d="M422.29,287s-8.12-14.23-35.05-5.92c0,0,23.3,4.68,35.05,5.92Z"/>
    <path class="leaf"  d="M424.01,287s12.41-8.59,12.99-8.79"/>
    <path class="leaf"  d="M423.67,288.21s21.44-7.99,37.39,3.09c0,0-4.77,1.43-12.61,2.39-6.8.83-24.62-5.31-24.62-5.31"/>
    <path class="leaf"  d="M423.72,287.76s.57,15.57,20.34,19.67c0,0-3.16-12.05-12.02-16.43"/>
    <path class="leaf"  d="M425.75,288.45s15.15-.64,22.89,1.2"/>
    <path class="leaf"  d="M416.58,286.21s-11.4,4.86-16.75,11"/>
    <path class="leaf"  d="M397.12,302.16s-5.42,6.46-5.98,17.54c0,0,28.47-22.73,31.5-32.38"/>
    <path class="leaf"  d="M410.28,295.54s5.9-5.66,11.96-8.77"/>
    <path class="leaf"  d="M424.51,292.06s1.86,15.63-7.65,28.2"/>
    <path class="Petiole"  d="M428.77,299.05s.77,11.26-8.75,23.83"/>
  </g>
  <g>
    <path class="leaf"  d="M495.96,379.23s-18.65,7.16-26.65,24.11c0,0,21.94-16.2,26.65-24.11Z"/>
    <path class="leaf"  d="M469.31,403.34s-15.73-4.8-33.53,4.99c0,0,26.37-.75,33.53-4.99Z"/>
    <path class="leaf"  d="M467.52,405.48s11.01-10.52,33.15-9.02c0,0-12.99,10.24-33.15,9.02Z"/>
    <path class="leaf"  d="M468.75,405.48s18.17,5.77,25.42,14.06c0,0-18.91.49-27.01-13.55"/>
    <path class="leaf"  d="M466.95,405.13c-1.98,3.2-5.27,29.48.85,39.37,0,0,2.86-27.06,1.82-34.97"/>
    <path class="leaf"  d="M467.11,404.38c-5.85,3.95-21.62,21.39-22.24,25.86-.37,2.63,1.91,2.81,2.86,2.41s11.68-16.16,17.62-20.51"/>
    <path class="Petiole"  d="M431.77,363.82s24.16,11.85,37.26,39.66"/>
    <path class="Petiole"  d="M430.63,366.78s18.12,10.48,36.69,36.12"/>
  </g>
  <g>
    <path class="Fibrous_Root"  d="M406.26,477.63s1.68,5.34-1.37,8.84c-3.05,3.51-8.69,10.37-15.25,16.47-6.56,6.1-6.25,7.01-8.39,12.5-2.4,6.17-2.13,12.96-11.59,18.76-9.45,5.79-20.13,3.96-23.79,7.62-6.94,6.94-17.84,15.4-17.84,15.4"/>
    <path class="Storage_Root"  d="M412.02,459.65s-7.43,6.39-9.41,13.4-7.01,12.05-12.05,16.77c-5.03,4.73-9.76,7.17-12.81,12.5s-16.01,13.72-21.5,17.23"/>
    <path class="Storage_Root"  d="M360.06,495.17s-9.45,9.61-15.4,17.23-11.13,14.94-11.13,14.94"/>
    <path class="Storage_Root"  d="M371.95,486.47s15.71-14.64,19.21-17.54,11.89-7.01,16.77-8.69"/>
    <path class="Storage_Root"  d="M415.26,456.13s-7.32-.91-16.47,4.88c-9.15,5.79-26.53,20.13-41.02,32.18-14.49,12.05-30.5,30.65-30.19,45.14"/>
    <path class="Storage_Root"  d="M423.8,457.2s-4.57,7.62-12.81,14.33"/>
    <path class="Storage_Root"  d="M425.63,460.09s-4.88,7.93-5.34,11.28c-.46,3.35.91,6.86-3.05,10.37-3.96,3.51-12.48,10.16-18.3,21.81-4.57,9.15-7.78,24.55-7.78,24.55"/>
    <path class="Storage_Root"  d="M417.55,496.08s-6.25,13.88-11.59,21.35"/>
    <path class="Storage_Root"  d="M440.25,472.37s6.64,4.62,9.94,12.73c4.06,9.97,1.98,15.86,7.47,23.48s21.65,20.43,34.61,21.5"/>
    <path class="Fibrous_Root"  d="M489.22,499.44s5.03,4.12,8.08,10.52c2.5,5.24,7.93,10.22,9,15.4"/>
    <path class="Fibrous_Root"  d="M508.42,498.13c.3.46,1.97,9.95,4.13,12.44,5.18,5.95,18.3,9.61,20.59,21.04"/>
    <path class="Fibrous_Root"  d="M475.6,498.26s14.23,6.97,16.67,12.76c2.44,5.79,8.39,11.13,21.5,20.74,13.11,9.61,18.6,15.4,23.18,16.16,4.57.76,9.61.3,9.61.3"/>
    <path class="Storage_Root"  d="M328.3,534.06c1.59-2.44,5.86-6.23,12.83-5.5s9.65.12,15.88-3.54c9.47-5.57,19.17-18.02,23.21-20.64,4.89-3.18,11.73-9.04,13.93-12.46s7.85-9.53,9.92-13.93c2.08-4.4,6.08-10.05,7.54-13.92,1.43-3.77,1.86-6.97,4.05-9.17,2.2-2.2,3.68-2.27,5.63-6.3s2.09-8.41,2.09-8.41c0,0,1.46,2.44,2.63,2.44,1.17,2.23,3.41,7.86,3.59,9.08.37,2.44.6,2.31,1.17,4.13.79,2.52,3.3,8.93,2.81,9.42-.15.15-3.61-3.04-4.48-2.43-3.9,2.7-5.77,8.05-5.77,8.05,0,0,.99-5.73.55-9.4-.2-1.62.34-4.2-1-4.2s-4.31,2.25-6.38,4.33-2.86,7.15-4.7,10.08c-1.83,2.93-2.63,3.25-3.97,5.81s-3.79,4.28-5.99,7.57-11.6,13.07-14.9,16.98c-3.3,3.91-7.45,7.94-12.95,13.07-10.3,9.62-13.07,11.48-19.42,14.29-4.35,1.92-10.38,1.59-15.27,2.69-4.49,1.01-8.18,3.91-12.34,7.7,0,0-.24-3.3,1.34-5.74Z"/>
    <path class="Storage_Root"  d="M423.73,474.24s1.05,2.28,1.16,2.44,2.6-4.07,2.73-7.73c0,0-.69,12.38-.97,18.72-.3,6.84.17,16.94.72,22.8l1.77,10.61s-2.54.66-2.76-.66c-.22-1.33-1.44-13.81-1.99-16.68s-.66-3.42-1.88-2.43-2.87,6.41-5.85,9.83-5.63,8.74-8.39,11.61c-2.76,2.87-7.52,11.59-8.18,12.03s-4.97,5.63-5.97,9.39c-.99,3.76-4.58,7.79-6.23,8.45s-2.6-.9-2.6-.9l.44-8.1.36-2.89s1.63,7.75,2.07,7.97c.88.44,1.66,1.77,3.42-2.21,1.77-3.98,3.39-7.22,8.29-15.47,5.06-8.53,7.74-10.9,12.9-17.07,3.27-3.91,7.13-11.47,7.79-13.79.93-3.27,2.42-4.67,3.2-9.09.73-4.14-.03-7.78-.03-9.98v-6.85Z"/>
    <path class="Storage_Root"  d="M426.49,518.64s-.88,1.33.66,3.09c1.55,1.77,5.41,7.29,7.62,12.7s5.7,12.13,8.51,16.68c2.65,4.31,5.19,4.64,5.52,3.65.19-.56.64-4.56.55-8.73-.07-3.24-.7-6.45-.55-9.06.33-5.97-.61-21.23-.61-21.23l1.61-3.74s-1.29-9.08-2.12-11.88c-1.19-3.99-3.23-9-3.23-9l1.36,17.45s1.01,9.63,1.44,20.07c.29,7.19-.33,9.98,0,13.74s-.06,10.23-.73,10.12c-2.05-.34-6.01-11.44-8.33-16.63-1.85-4.14-8.25-12.94-8.25-12.94,0,0-2.35-8.6-2.24-9.49l-1.22,5.19Z"/>
    <path class="Storage_Root" d="M420.1,472.97s-.54,4.41-10.43,10.81c-9.89,6.39-15.09,22.28-17.08,25.78-2,3.5-8.79,21.18-6.09,39.86"/>
    <path class="Storage_Root"  d="M387.29,550.11s-1.1-5.1,1.4-11.59"/>
    <path class="Fibrous_Root"  d="M406.74,523.14s2.01,8.29-1.38,14.19c-3.39,5.9-2.51,17.21,2.26,21.73"/>
    <path class="Fibrous_Root"  d="M420.3,503.18s1,14.94-1.51,27.13c-2.51,12.18-3.52,20.72,5.02,26.62"/>
    <path class="Fibrous_Root"  d="M427.46,517.12s-5.02,15.31-4.4,21.1c.63,5.78,3.39,7.91,3.39,7.91"/>
    <path class="Fibrous_Root"  d="M408.37,521.51s3.52,6.03,2.01,13.44"/>
    <path class="Fibrous_Root"  d="M448.31,507.82s5.15,12.06,5.53,19.09c.38,7.03,10.93,17.21,10.42,27.75"/>
    <path class="Fibrous_Root"  d="M454.21,511.59s1.88,12.94,6.03,16.83c4.14,3.89,10.8,1.13,16.07,11.18,5.27,10.05,7.03,13.06,13.94,14.32"/>
    <path class="Storage_Root"  d="M514.24,481.95s4.65-.5,10.8,3.14c6.15,3.64,16.45,15.32,16.45,15.32"/>
    <path class="Fibrous_Root"  d="M517.01,500.44s12.05,13.04,19.08,14.42,15.82,3.01,18.59,7.66,11.43,3.77,11.43,3.77"/>
    <path class="Storage_Root"  d="M425.95,497.15s5.02,2.26,8.92,1.26"/>
    <path class="Storage_Root"  d="M425.95,503.93s9.17,1.13,11.93.5"/>
    <path class="Storage_Root"  d="M438.64,526.16s.25.25,3.64.13"/>
    <path class="Storage_Root"  d="M409.75,493.88s2.13,3.39,4.02,4.4"/>
    <path class="Storage_Root"  d="M405.86,496.77s2.64,2.89,4.02,2.51"/>
    <path class="Storage_Root"  d="M426.83,460.98s-5.97,7.83-2.39,18.08"/>
    <path class="Storage_Root"  d="M429.18,461.09s-2.35,7.43-2.55,11.46c-.17,3.4.59,20.12-.59,24.19"/>
    <path class="Storage_Root"  d="M429.32,461.74s-.25,10.37,7.93,17.94c5.87,5.43,7.72,13.41,9.34,29.88"/>
    <path class="Storage_Root"  d="M444.63,514.74c-.51,12.22,3.23,28.61,2.55,38.37"/>
    <path class="Storage_Root"  d="M430.03,461.26s5.69,5.69,7.13,11.29,7.98,8.66,9.85,20.29c1.87,11.63,1.53,15.79,1.53,15.79"/>
    <path class="Storage_Root"  d="M447.01,492.84s1.18,11.95,2.88,13.95c1.7,2.01,5.51,7.92,8.22,12.03s13.33,9.82,19.65,12.53c6.32,2.71,15.94,3.41,21.55,3.21,5.61-.2,7.82-.8,8.02-2.01.2-1.2-.9-2.21-.9-2.21,0,0-.7,1.7-2.51,1.7s-5.31-1.4-5.31-1.4c0,0,3.61,2.61-2.81,2.01s-13.03-.8-18.25-3.81c-5.21-3.01-7.78-4.19-15.24-11.83-8.42-8.62-8.92-7.52-10.93-11.43-2.01-3.91-2.61-10.43-3.21-14.04-.6-3.61-3.11-5.51-3.11-5.51,0,0,2.26,4.48,1.93,6.8Z"/>
    <path class="Storage_Root"  d="M440.06,463.18s18.55,9.72,21.76,25.36c3.21,15.64,25.36,28.37,32.48,33.08s12.97,8.01,12.27,10.71"/>
    <path class="Storage_Root"  d="M431.54,453.56s9.3,4.64,6.19,19.98"/>
    <path class="Storage_Root"  d="M463.77,494.38s24.5,11.81,35.75.01"/>
    <path class="Storage_Root"  d="M462.21,489.76c10.38,5.87,18.73,7.02,32.42,7.92"/>
    <path class="Storage_Root"  d="M443.74,465.28s10.46-.27,15.93,4.7"/>
    <path class="Storage_Root"  d="M450.8,453.5s5.13.06,7.41,5.27c1.89,4.33,3.8,9.26,8.78,12.29,4.97,3.02,18.23,10.53,20.38,12.48"/>
    <path class="Storage_Root"  d="M469.81,464.23s-2.05,4.78-3.71,5.95"/>
    <path class="Storage_Root"  d="M486.1,465.6s-1.37,2.63-2.93,3.41"/>
    <path class="Storage_Root"  d="M500.82,484.9s.59,1.76,3.02,3.32"/>
    <path class="Storage_Root"  d="M433.94,446.69s13.19,7.24,12.5,18.36l-2.05-.17s-1.88-9.23-8.04-11.54c0,0-.26,3.93.85,8.12,0,0-2.56-4.87-4.02-4.44s-2.48,1.97-2.48,1.97l1.28-14.02,1.6.38.34,1.35Z"/>
    <path class="Storage_Root"  d="M439.02,466.19s-.43,7.76,3.3,14.09c0,0-4.48-5.27-5.07-6.81s.58-4.72,1.78-7.28Z"/>
    <path class="Storage_Root"  d="M433.18,449.57s11.67-1.44,16.83,2.54"/>
    <path class="Storage_Root"  d="M443.84,447.12s15.9-2.62,23.69-.08c5.93,1.93,11.76,4.74,16.58,9.98,4.82,5.24,13.62,11.59,20.56,13.37,9.08,2.33,27.98,10.25,34.43,17.34,8.46,9.31,8.46,18.7,8.46,18.7l-4.23-1.61-.08-.68s.76-7.78-7.53-14.89c-8.29-7.11-24.87-13.96-33.84-17.43-8.97-3.47-20.56-13.28-23.18-15.73-2.62-2.45-11.67-6.6-13.87-7.02s-6.6-1.18-9.9-.93c-2.83.22-6.18,2.28-6.18,2.28l-4.91-3.3Z"/>
    <path class="Storage_Root"  d="M551.9,509.08c-1.65-1.42-1.87-1.62-4.34-2.66-2.47-1.05-13.42-5.8-21.73-5.95-8.32-.15-22.25-5.69-27.58-8.47-5.32-2.77-16.01-8.21-25.63-13.94-15.74-9.37-15.89-13.56-17.76-19.03-1.87-5.47-5.47-8.99-8.32-11.54s-8.62-1.35-8.62-1.35l-5.17.22,2.25,3.15s9.8-.97,14.61,4.72c3.67,4.35,8.74,19.72,18.81,24.8,27.18,13.72,32.06,17.68,45.26,21.36,9.76,2.72,23.42,3.16,30.42,5.77,3.15,1.18,7.04,4.27,7.94,3.97s-.15-1.05-.15-1.05Z"/>
  </g>
  <g>
    <path class="leaf" d="M476.15,150.04l-15.46-16.74s9.89,12.77,15.46,16.74Z"/>
    <path class="Petiole"  d="M434.51,355.51l-.55,3.07c3.51.33,11.52-.44,11.52-.44l-1.65-3.18c-2.74.66-9.32.55-9.32.55Z"/>
    <path class="Petiole"  d="M498.92,243.64l-1.1,6.32c7.21-.69,24.8-8.52,24.8-8.52-8.73-1.58-23.7,2.2-23.7,2.2Z"/>
    <path class="Stem"  d="M425.79,375.31s-2.82-14.15-2.53-22.24c.35-9.62,3.65-21.6,3.65-21.6l-15.94,19.24,7.06-5.64-.35,9.97-6.55-4.33-1.91,2.01,8.93,7.19s1.24,34.23,2.98,47.61c1.73,13.38,2.72,39.72,2.72,39.72l2.31-.83s-1.65-34.68-1.16-47.23c0,0,6.03,40.13,7.18,48.05l1.74-.53s-5.95-41.82-6.61-50.74c-.66-8.92-1.54-20.65-1.54-20.65Z"/>
    <path class="Stem"  d="M421.94,328.08c-4.52-.46-8.53-3.27-8.53-3.27l.09,9.08c1.89-2.03,8.44-5.81,8.44-5.81Z"/>
    <path class="Stem"  d="M413.77,318.63s2.24-11,4.12-15.91c1.88-4.92,2.24-10.13,2.24-10.13l-4.77,5.35s-2.39,2.39-4.77,5.64c0,0,1.23,6.51,1.09,13.02l2.1,2.03Z"/>
    <path class="Petiole"  d="M426.5,286.88l12.66-1.59c4.48-2.17,20.98-12.3,20.98-12.3v-4.05c-6.08,4.2-27.34,15.12-27.34,15.12l-6.29,2.82Z"/>
    <path class="Petiole"  points="464.33 267.27 463.9 270.24 475.33 262.5 473.23 261.2 464.33 267.27"/>
    <path class="Petiole"  d="M390.04,234.22c1.66.58,3.26,2.6,3.26,2.6l-.29-4.05-4.2-2.89-1.81,4.27s1.37-.51,3.04.07Z"/>
    <path class="Stem"  d="M379.7,228.79l2.39-2.97c-1.37-.29-4.2-3.33-4.2-3.33l-4.34,1.45c2.03.43,6.15,4.85,6.15,4.85Z"/>
    <path class="Petiole"  d="M343.74,164.91l-1.08.8s2.77,3.37,7.23,7.23c4.34,3.76,11.5,10.06,11.5,10.06,2.97,0,5.06.65,5.06.65-5.64-7.38-22.71-18.74-22.71-18.74Z"/>
    <path class="Stem"  d="M409.48,279.05l5.13,1.53s-2-20.04-2.33-27.89c-.18-4.28-.28-7.27-.34-9.11,1.67,3.74,3.13,7.64,3.93,11.24,0,0,1.93-1.6,2-3.26.07-1.66-7.92-21.17-10.98-25.69,0,0-5.33-5.19-5.59-3.33-.27,1.86.67,2.93.67,2.93,0,0,1.78,2.67,4.09,6.69.05.93.18,2.98.35,5.75l-4.14-3.18-.29,5.18,4.78,3.77c.24,3.85.53,8.25.83,12.66l-5.98-3.46.14,3.91,6.16,4.12c.23,3.19.46,6.28.69,9.04-17.85-7.04-31.35-20.93-31.35-20.93l-1.83,2.33c14.07,15.7,30.29,21.33,33.5,22.33.2,2.19.39,4.04.56,5.36Z"/>
    <path class="Petiole"  d="M425.14,266.16s-2.15-5.01-1.86-6.73l-2.22,1.36s2.29,2.94,2.43,8.23l1.65-2.86Z"/>
    <path class="Stem"  d="M405.25,176.94c-.22,4.54-.97,20.87-.73,27.86l4.51-3.15-.56-28.87c.39-.65.71-1.3.92-1.91l-1.93-2.72s-3.79,7.23-4.94,8.95l.5,2.08s1-.91,2.23-2.23Z"/>
    <path class="Petiole"  d="M418.96,161.27s5.55-13.34,6.19-21.18l-1.81-.05s-3.84,17.02-10.78,23.21c.11.11,3.63-1.49,6.4-1.97Z"/>
  </g>
</svg>
