<?xml version="1.0" encoding="UTF-8"?>
<svg id="_图层_1" data-name="图层 1" xmlns="http://www.w3.org/2000/svg" version="1.1" viewBox="0 0 1038.38 1147.54">
  <defs>
    <style>
      .cls-1 {
        stroke-width: 1.42px;
      }

      .cls-1, .cls-2 {
        fill: none;
        stroke: #231815;
        stroke-miterlimit: 10;
      }

      .cls-3 {
        fill: #231815;
        stroke-width: 0px;
      }
    </style>
  </defs>
  <path class="Epidermis" d="M210.18,504.68s8.12,58.91,11.37,106.23c3.25,47.32,10.21,128.04,11.37,140.56,1.16,12.53,7.89,92.32,11.13,100.43,3.25,8.12,10.44,7.89,10.44,7.89,0,0-20.88-195.53-22.15-231.02-1.28-35.49-9.27-118.79-15.88-141.06"/>
  <line class="Epidermis" x1="211.01" y1="510.85" x2="220.63" y2="509.08"/>
  <path class="Epidermis" d="M212.81,524.96c.85-.04,9.98-.8,9.98-.8"/>
  <path class="Epidermis" d="M219.39,584.6c1.23-.02,9.87-.93,9.87-.93"/>
  <line class="Epidermis" x1="221.65" y1="612.43" x2="231.48" y2="612.43"/>
  <path class="Epidermis" d="M225.41,662.18c1.13-.18,9.41.65,9.41.65"/>
  <path class="Epidermis" d="M229.42,711.09c.94-.38,9.74-1.28,9.74-1.28"/>
  <path class="Epidermis" d="M229.04,490.46c.46.7,14.31,164.05,14.77,188.87.46,24.82,2.32,54.04,0,76.31"/>
  <path class="Epidermis" d="M245.91,614.4s.45-2.1-2.8-35.5c-3.25-33.4-2-63.78-2.93-76.54"/>
  <path class="Epidermis" d="M242.27,652.9c1.57,20.9,2.59,84.87,2.11,96.01-.48,11.14,9.05,100.94,10.1,110.88,3.48,4.18,11.37,7.89,13.22,1.16s.7-14.61,0-15.31-4.18,4.41-4.64,0c-.23-7.89-7.89-83.97-8.58-98.81-.7-14.84-8.57-132.43-8.57-132.43,0,0,5.38.44,8.54-1.97"/>
  <path class="Leaf" d="M233.14,438.98s-20.35,61.23-32.18,90.63c-11.83,29.4-40.88,98.11-43.66,113.07,1.74-30.62,43.14-138.47,46.97-150.3,3.83-11.83,8.58-48.01,24.99-57.06"/>
  <path class="Leaf" d="M205.31,445.3s-8.35,2.55-14.84,13.45c-6.49,10.9-35.02,31.78-46.39,43.37s-28.07,28.3-27.83,39.43c-2.55-8.58,4.64-22.04,19.72-36.65,15.08-14.61,43.34-57.82,65.38-68.72"/>
  <path class="Leaf" d="M207.51,479.6c-2.67-1.6-9.97-14.54-13.69-25.62,5.59-5.39,8.55-7.32,8.55-7.32,0,0,5.74,16.09,8.63,19.55-2.48,9.25-3.49,13.4-3.49,13.4Z"/>
  <path class="Leaf" d="M189.7,444.21s-8.92-24.2-15.7-29.41c-6.78-5.22-42.79-23.48-57.23-27.66s-28.7-14.79-28.7-14.79c0,0,22.44,13.05,37.75,12.87,15.31-.17,42.27,12.35,54.62,29.23,12.35,16.87,14.79,24.98,14.79,24.98"/>
  <path class="Leaf" d="M182.19,416.88c2.39-.32,6.59-.17,11.64.52"/>
  <path class="Leaf" d="M173.17,414.37c-18.96,7.14-34.77,22.6-51.19,42.35-21.4,25.75-31.31,62.97-39.32,86.63,3.13-14.44,23.31-35.49,26.79-44.53,3.48-9.05,28.18-41.75,34.62-53.41,5.67-10.27,28.25-23.52,33.51-26.52"/>
  <path class="Leaf" d="M191.39,410.28c-4.33.35-8.47,1.1-12.48,2.21"/>
  <path class="Leaf" d="M212.65,460.97s-13.14-28.42-17.43-38.63-14.5-31.31-27.25-42.91-37.58-44.53-41.52-49.87c-.93-5.1,7.36,2.55,11.8,6.73s49.43,44.07,54.54,60.07c5.1,16,23.74,54.76,23.74,54.76l-3.87,9.85Z"/>
  <path class="Leaf" d="M219.76,415.08s-9.66-7.64-22.12-5.82"/>
  <path class="Leaf" d="M221.5,423.14s-15.03-9.85-22.22-4.98"/>
  <path class="Leaf" d="M223.39,440.16s-11.13-8.66-13.21-22.4"/>
  <path class="Leaf" d="M211.69,443.18s7.92-2.8,8.08-6.48"/>
  <path class="Leaf" d="M216.79,433.07s-3.85-2.49-8.71,0"/>
  <path class="Leaf" d="M225.03,432.52c-4.18-1.13-10.34-8.95-12.59-14.09"/>
  <path class="Leaf" d="M207.12,409.57s-10.86-39.42-15.26-61.23c-4.41-21.8-16.47-77.93-35.95-77.01-8.12.7-9.48,3.22-1.13,2.99s12.03-3.68,22.24,8.61c10.21,12.29,20.43,29.69,25.41,63.55s11.86,62.27,14.1,65.81"/>
  <path class="Leaf" d="M208.08,260.21s.51-8.35,2.93-2.78,5.66,31.54,5.78,36.88,1.89,36.42,2.98,68.89,17.79,82.57,21.27,88.84c1.39,3.94-2.09,15.31,0,23.19,2.09,7.89,1.1,22.27-.84,27.14-4.26-4.87-8.97-9.68-15.05-15.89-2.43-8-4.51-10.71-4.51-10.71l11.99-35.19s2.01-2.98-1.9-5.24-6.96,1.88-11.57-23.02c-6.35-17.77-10.12-35.57-8.96-84.44,1.16-48.87-.72-59.08-2.1-67.66Z"/>
  <path class="Leaf" d="M240.33,440.16s-13.22-41.48-14.15-80.22c-.93-38.74,2.78-141.02,2.78-159.81.93-4.64,1.16,81.65,1.39,102.29s1.39,100.38,16.47,137.52"/>
  <path class="Leaf" d="M267.7,845.64c1.51-37.81-7.42-122.24-7.77-131.98-.35-9.74-6.26-130.47-7.31-149.26-1.04-18.79-4.61-110.99-4.61-110.99l-6.99-1.39"/>
  <path class="Epidermis" d="M242.2,479.95s3.74,1.65,6.91,1.3"/>
  <path class="Epidermis" d="M240.19,502.36s5.96,1.26,9.78.46"/>
  <path class="Epidermis" d="M240.33,528.69s6.93,1.87,10.71.47"/>
  <path class="Leaf" d="M239.87,412.49s-3.42-110.77,8.15-165.39c11.57-54.62,16.44-66.8,16.44-66.8,0,0,2.09,10.44-6.26,41.75-8.35,31.31-16.14,126.3-13.11,135.69,5.81-8,24.25-105.07,28.77-119.69,4.52-14.61-16.36,111.34-17.23,125.6-.87,14.26-5.2,36.13-11.9,68.86l-4.85-20.02Z"/>
  <path class="Epidermis" d="M242.26,564.52s6.24,2.23,10.45,1.41"/>
  <path class="Leaf" d="M254.59,421.98s-.13-18.6,14.74-53.45c18.09-38.97,58.45-142.3,59.84-148.21,1.39-5.91-42.79,77.93-49.06,90.46s-25.05,53.87-27.49,68.17"/>
  <path class="Leaf" d="M241.03,459.61s13.68,1.81,18.21-9.67c4.52-11.48,6.96-13.57,12.18-14.61s70.63-25.1,89.42-56.39c.7-3.1-14.96,7.97-25.75,15.48-10.79,7.51-25.56,19.21-64.02,32.68-7.31,1.27-18.55,4.29-20.02,17.97-10.02,6.96-11.16,4.49-11.06,4.71s1.05,9.84,1.05,9.84Z"/>
  <path class="Leaf" d="M261.44,432.52c9.58-8.45,8.81-15.98,26.67-38.1,17.86-22.12,32.01-33.08,56.13-74.36-10.21,17.64-58.45,61-79.33,86.74-20.88,25.75-18.09,43.37-18.09,43.37"/>
  <path class="Leaf" d="M262.7,384.25s5.01.75,21.01-18.04c16-18.79,72.83-82.34,79.33-86.52,1.86-.46-7.42,16-18.79,29.92s-56.6,60.48-65.18,69.33c-8.58,8.84-21.99,32.15-24.68,38.82,2.06-13.1,8.31-33.51,8.31-33.51Z"/>
  <path class="Leaf" d="M285.39,384.13c-.55-14.73-1.41-31.34-2.72-46.12"/>
  <path class="Leaf" d="M299.56,380.94c-2.98,12.2-5.4,22.03-6.57,26.82-4.18,17.12-6.61,17.71-6.61,17.71,0,0-.08-11.75-.55-28.17"/>
  <path class="Leaf"  d="M312.73,356.15c6.35-25.07,12.53-52.72,16.47-79.82.32-11.83-3.51-16.35-7.69,8.35-2.55,15.11-11.09,51.36-18.29,81.17"/>
  <path class="Leaf"   d="M277.61,408.98c-.95,22.61-3.01,44.52-7.24,56.27-5.59-26.18-8.35-28.55-8.35-28.55l-9.39,19.04s10.61,32.65,9.92,64.66c1.91,5.57,10.96,6.09,13.05,1.39.7-8.87,2.96-7.83,6.61-15.66,3.65-7.83,1.77-40.93,8.71-69.43,3.47-14.25,10.7-38.24,18.23-66.71"/>
  <path class="Leaf"  d="M278.2,348.72c.16,10.85.28,26.5-.06,43.08"/>
  <path class="Leaf"   d="M279.41,312.19c-1.36-7.35-2.98-12.74-4.92-14.99-2.07-1.64.09,8.55,1.83,21.44"/>
  <path class="Leaf"   d="M358.86,294.53s-21.7,53.35-29.64,79.79c-7.94,26.44-15.36,63.02-14.9,88.8,8.35-5.3,22.26-7.62,22.26-7.62l41.76-39.9s-14.84,3.18-40.36,27.57c-4.18,3.98,1.86-18.41,17.16-30.88,15.31-12.46,32.01-38.91,32.01-42.62s-32.94,35.66-45.93,49.37c-12.53,13.72-13.92,13.03-13.92,6.41s15.75-70.63,23.42-91.51c7.66-20.88,8.13-39.43,8.13-39.43Z"/>
  <path class="Leaf"   d="M286.41,465.33s6.11-1.01,15.85-13.3c9.74-12.29,28.92-23.07,28.92-23.07,0,0-25.67,29.49-28.46,36.37,11.6-2.2,42.21-15.41,70.05-18.19-36.19,8.36-85.82,31.79-90.92,39.33l4.56-21.14Z"/>
  <path class="Epidermis"  d="M262.72,524.56s7.31,6.45,13.57,1.4c1.22,20.18,6.03,55.03,5.57,96.2s3.25,169.67,5.1,184.51.81,41.63-15.54,42.68l-4.06-1.39s.88-17.28.52-23.43c.52,9.63,3.19,16.47,8.41,12.87s1.57-27.37,0-44.07-7.08-136.97-8.41-154.59c-1.33-17.63-5.16-114.19-5.16-114.19Z"/>
  <path class="Leaf"  d="M317.16,427.85c-12.1,9.69-23.31,19.25-29.42,25.96"/>
  <path class="Leaf"  d="M367.01,390.15s-18.88,13.54-38.74,28.95"/>
  <path class="Leaf"  d="M372.78,447.14s-24.12,13-48.94,23.44-29.8,13.72-38.79,12.89"/>
  <path class="Leaf"  d="M338.34,422.28s8.23-60.54,28.68-109.66c-9.54,33.86-20.65,77.89-21.5,93.68"/>
  <path class="Epidermis"  d="M321.17,735c.7-26.09,1.04-183.47,1.04-217.92s6.7-48.68,6.7-48.68l-20.08,8.59s5.4,5.64,5.47,16.43c.08,10.79.68,76.66,0,80.14-.67,3.48-1.83,64.02-2.53,69.12-.7,5.1.93,82.81.93,82.81,0,0,1.99,96.49,1.92,98.11,0,0,.15,10.04,8.74,11.54,1.11-14.5-2.89-74.05-2.19-100.15ZM317.69,627.96c0,3.83-1.86,4.41-2.2.93-.35-3.48,0-57.52.46-59.61.46-2.09,1.74,0,1.74,0v58.68ZM315.95,563.59c-1.16-.7-1.33-14.15-.61-15.89.72-1.74,2.34,0,2.34,0,.35,11.25-.58,16.58-1.74,15.89ZM316.41,505.72c-1.16-.81-2.2-18.44-1.16-20.41,1.04-1.97,3.62,0,3.62,0,.37,4.99-1.3,21.22-2.46,20.41Z"/>
  <path class="Root"  d="M323.36,835.15s9.34,10.49,41.12,12.64"/>
  <path class="Epidermis"  d="M283.14,503.09s3.12,46.13,4.49,67.93c1.37,21.8,7.91,87.21,7.91,106.46s5.1,87.21,7.42,103.68,5.28,57.88,4.18,57.52"/>
  <path class="Epidermis"  d="M284.27,519.96s-3.64,7.32-7.99,6"/>
  <path class="Epidermis"  d="M278.32,550.1c.95.23,5.63.51,7.66-2.04"/>
  <path class="Epidermis"  d="M280.56,578.06s4.79,1.44,7.45-1.58"/>
  <path class="Epidermis"  d="M281.35,600.47s5.04,1.51,8.63,0"/>
  <path class="Root"  d="M329.61,844.24c6.41.7,12.84,1.2,19.28,1.41"/>
  <path class="Epidermis"  d="M281.85,600.61c3.81,66.02,8.81,132.02,11.81,199.02,0,12-2,25,3,36,2,3,6,5,11.31,5.29"/>
  <path class="Root"  d="M318.92,853.27c-12.26-3.64-29.26-6.64-32.65-21.25"/>
  <path class="Root"  d="M281.85,843.23c7.81,4.4,16.81,7.4,24.81,10.4,12,4,25,3,36.77,3.73-8.02-.74-5.78-.21,0,0-8.02-.74-16.02-2.05-23.85-3.92"/>
  <path class="Root"  d="M279.8,845.64s9.59,9.05,22.93,10.55c-15.19.23-24.55-5.57-34.02-7.77"/>
  <path class="Root"  d="M268.56,856.04c.69.89,13.41,10.94,45.53,10.01-11.13.85-40.97-10.42-45.39-17.63"/>
  <path class="Root"  d="M242.26,844.13s-44.14,20.99-79.4,3.65"/>
  <path class="Root"  d="M185.71,863.39c3.36.93,3.71,4.41,27.37,3.83,23.66-.58,40.13-6.12,41.4-7.42"/>
  <path class="Epidermis"  d="M526.75,675.76s-86.53-4.52-94.24,36.88c-3.52,37.87,111.41,23.78,111.41,23.78,0,0,75.52,0,104.59.66s213.58,7.93,225.69,6.83c8.28-5.46,12.33-18.94,11.45-33.25s-10.39-23.22-16.29-23.78c-32.15-2.42-329.06-12.54-342.6-11.11Z"/>
  <path class="Pith"  d="M449.38,720.42c-3.96-3.85-13.13-16.16,4.38-25.41s41.4-13.94,67.2-10.03c9.56,1.45,32.88,8.38,30.57,19.94s-8.44,14.07-14.38,17.28c-13.15,7.1-36.33,9.14-57.95,7.49-14.18-1.08-27.03-6.57-29.81-9.27Z"/>
  <path class="Epidermis-"  d="M526.75,675.76s34.35,9.35,31.71,26.2"/>
  <path class="Epidermis"  d="M549.54,679.49s7.93,3.63,12.22,10.9,2.97,6.28,2.97,6.28c0,0,6.89,29.94-57.49,42.22"/>
  <path class="Epidermis"  d="M568.69,682.8c1.32-.33,19.49,0,19.49,0"/>
  <path class="Epidermis"  d="M695.88,679.57s16.15,14.4,12.52,29.62-6.26,22.47-17.83,29.25"/>
  <path id="Epiodermis" class="cls-1" d="M690.57,684.45s9.45,4.62,9.18,20.48"/>
  <path class="Epidermis"  d="M706.75,679.49s16.51,10.9,9.25,34.02-12.8,25.37-12.8,25.37"/>
  <path class="Epidermis"  d="M723.59,718.8s6.17-36.81-10.68-32.84"/>
  <path class="Epidermis"  d="M735.15,699.64s3.3,4.14,1.65,10.16"/>
  <path class="Epidermis"  d="M737.26,685.65s79.79,1.77,116.45,5.07"/>
  <path class="Epidermis"  d="M866.93,694.69s15.52,11.23,6.28,35.01"/>
  <line class="Epidermis"  x1="866.93" y1="729.7" x2="737.26" y2="728.04"/>
  <line class="Epidermis"  x1="727.55" y1="726.39" x2="716.66" y2="726.39"/>
  <line id="Epidermis-21"  x1="692.88" y1="728.04" x2="574.31" y2="728.04"/>
  <path class="Epidermis"  d="M716.66,739.36c1.32.05-5.94-4.38,33.03-3.39s112.95,4.13,118.57,3.39"/>
  <path class="Epidermis"  d="M538.02,737.04s8.88-2.39,50.16-3.05,92.15,0,92.15,0"/>
  <path class="Epidermis"  d="M257.9,670.43c-1.61.03-2.71,2.61-8.27,0"/>
</svg>